<?xml version="1.0" encoding="UTF-8" standalone="no"?>
<!-- Created with Inkscape (http://www.inkscape.org/) -->

<svg
   version="1.1"
   id="svg1"
   width="800"
   height="800"
   viewBox="0 0 800 800"
   xmlns="http://www.w3.org/2000/svg"
   xmlns:svg="http://www.w3.org/2000/svg">
  <defs
     id="defs1" />
  <g
     id="g38">
    <g
       id="layer2">
      <path
         style="display:inline;opacity:1;fill:#ff0000;stroke:none;stroke-width:6.2;stroke-opacity:0.968135;paint-order:stroke fill markers"
         d="m 259.02431,114.92676 0.038,34.73822 c 0.003,2.45632 -1.98548,4.29377 -4.43975,4.36038 -9.4574,0.25667 -32.00387,3.25108 -47.85321,24.58008 -3.14341,4.2302 -5.34691,7.97549 -6.92197,11.43166 -6.5249,14.31771 -7.44978,40.74129 -6.6724,56.50419 1.0538,21.36817 4.6869,42.86768 -0.99125,66.34647 -8.19974,33.90546 -25.6507,43.73934 -25.6507,43.73934 0,0 13.1059,13.41185 21.03867,30.7543 2.63483,5.76021 5.33861,15.74158 6.07931,22.03309 2.72247,23.12466 -0.75582,56.28279 -0.71951,77.81157 0.0313,18.56436 4.4714,38.91016 16.9445,53.05293 15.15933,17.18857 36.14265,20.98458 45.20069,21.81899 2.45462,0.22612 4.41582,2.23153 4.36475,4.69695 l -0.73718,35.58774 c -0.0433,2.09104 -1.77363,3.74547 -3.86281,3.64827 -13.68888,-0.63688 -60.88223,-4.06163 -81.0751,-21.40708 -26.69833,-22.93357 -32.43357,-54.41585 -33.27668,-68.24636 -1.68826,-27.69452 3.06372,-64.52489 -2.79959,-94.92455 -3.82246,-19.81839 -16.87141,-29.63185 -25.49226,-34.06236 -4.20591,-2.16154 -7.9973,-7.03621 -8.06394,-11.7727 l -0.51993,-36.95218 c -0.0459,-3.26439 2.36082,-6.94027 5.23718,-8.48208 1.98992,-1.06666 4.41337,-2.47202 7.04988,-4.22884 4.0966,-2.72973 10.31298,-7.88697 13.1061,-11.92546 15.73695,-22.75353 10.27941,-68.3058 10.84505,-96.60678 0.62174,-31.10784 6.00906,-67.16616 38.18478,-88.65022 26.61723,-17.7726 64.616,-18.37799 76.95052,-18.05676 2.22837,0.058 4.0344,1.98183 4.03684,4.21119 z"
         id="path21" />
      <path
         style="opacity:1;fill:#ff0000;stroke:none;stroke-width:6.2;stroke-opacity:0.968135;paint-order:stroke fill markers"
         d="m 259.02431,114.92676 0.038,34.73822 c 0.003,2.45632 -1.98548,4.29377 -4.43975,4.36038 -9.4574,0.25667 -32.00387,3.25108 -47.85321,24.58008 -3.14341,4.2302 -5.34691,7.97549 -6.92197,11.43166 -6.5249,14.31771 -7.44978,40.74129 -6.6724,56.50419 1.0538,21.36817 4.6869,42.86768 -0.99125,66.34647 -8.19974,33.90546 -25.6507,43.73934 -25.6507,43.73934 0,0 13.1059,13.41185 21.03867,30.7543 2.63483,5.76021 5.33861,15.74158 6.07931,22.03309 2.72247,23.12466 -0.75582,56.28279 -0.71951,77.81157 0.0313,18.56436 4.4714,38.91016 16.9445,53.05293 15.15933,17.18857 36.14265,20.98458 45.20069,21.81899 2.45462,0.22612 4.41582,2.23153 4.36475,4.69695 l -0.73718,35.58774 c -0.0433,2.09104 -1.77363,3.74547 -3.86281,3.64827 -13.68888,-0.63688 -60.88223,-4.06163 -81.0751,-21.40708 -26.69833,-22.93357 -32.43357,-54.41585 -33.27668,-68.24636 -1.68826,-27.69452 3.06372,-64.52489 -2.79959,-94.92455 -3.82246,-19.81839 -16.87141,-29.63185 -25.49226,-34.06236 -4.20591,-2.16154 -7.9973,-7.03621 -8.06394,-11.7727 l -0.51993,-36.95218 c -0.0459,-3.26439 2.36082,-6.94027 5.23718,-8.48208 1.98992,-1.06666 4.41337,-2.47202 7.04988,-4.22884 4.0966,-2.72973 10.31298,-7.88697 13.1061,-11.92546 15.73695,-22.75353 10.27941,-68.3058 10.84505,-96.60678 0.62174,-31.10784 6.00906,-67.16616 38.18478,-88.65022 26.61723,-17.7726 64.616,-18.37799 76.95052,-18.05676 2.22837,0.058 4.0344,1.98183 4.03684,4.21119 z"
         id="path35"
         transform="matrix(-1,0,0,1,790.00379,0.9448052)" />
    </g>
    <g
       id="layer3">
      <path
         style="opacity:1;fill:#ffffff;fill-opacity:1;fill-rule:nonzero;stroke:none;stroke-width:1.12037;stroke-linecap:round;stroke-linejoin:round;stroke-dasharray:none;stroke-opacity:1;paint-order:markers stroke fill"
         d="m 277.95333,25.187875 c 0,0 -22.03118,34.591502 4.36986,72.08435 12.68983,18.021195 25.33408,43.878285 25.80792,65.906985 0.51198,23.80174 -11.69529,43.12884 -11.69529,43.12884 0,0 50.28213,-36.44872 26.57796,-91.39046 -9.6472,-22.360185 -29.15932,-44.793384 -38.44248,-59.381532 -6.33011,-9.947542 -6.61797,-30.348183 -6.61797,-30.348183 z"
         id="path28" />
      <path
         style="opacity:1;fill:#ffffff;fill-opacity:1;fill-rule:nonzero;stroke:none;stroke-width:1.12037;stroke-linecap:round;stroke-linejoin:round;stroke-dasharray:none;stroke-opacity:1;paint-order:markers stroke fill"
         d="m 365.2118,26.197653 c 0,0 -22.03121,34.591501 4.36987,72.084352 12.68979,18.021145 25.33413,43.878275 25.80795,65.906985 0.51197,23.80174 -11.69533,43.12884 -11.69533,43.12884 0,0 50.28211,-36.44872 26.57792,-91.39031 -9.64719,-22.360335 -29.15925,-44.793538 -38.44241,-59.381684 -6.33013,-9.947547 -6.618,-30.348183 -6.618,-30.348183 z"
         id="path29" />
      <path
         style="opacity:1;fill:#ffffff;fill-opacity:1;fill-rule:nonzero;stroke:none;stroke-width:1.12037;stroke-linecap:round;stroke-linejoin:round;stroke-dasharray:none;stroke-opacity:1;paint-order:markers stroke fill"
         d="m 454.46478,25.056773 c 0,0 -22.03122,34.591499 4.36983,72.084352 12.68983,18.021225 25.33409,43.878285 25.80792,65.906965 0.51198,23.80177 -11.69529,43.12887 -11.69529,43.12887 0,0 50.28213,-36.44872 26.57794,-91.39044 C 489.878,92.426295 470.36588,69.993101 461.08274,55.404954 454.75261,45.45741 454.46478,25.056773 454.46478,25.056773 Z"
         id="path30" />
      <ellipse
         style="opacity:1;fill:#ffffff;fill-opacity:1;fill-rule:nonzero;stroke:none;stroke-width:0.840355;stroke-linecap:round;stroke-linejoin:round;stroke-dasharray:none;stroke-opacity:1;paint-order:markers stroke fill"
         id="path31"
         cx="333.63104"
         cy="302.08438"
         rx="34.550316"
         ry="36.732819" />
      <ellipse
         style="opacity:1;fill:#ffffff;fill-opacity:1;fill-rule:nonzero;stroke:none;stroke-width:0.838445;stroke-linecap:round;stroke-linejoin:round;stroke-dasharray:none;stroke-opacity:1;paint-order:markers stroke fill"
         id="path32"
         cx="456.01471"
         cy="377.36276"
         rx="46.682938"
         ry="51.90424" />
      <ellipse
         style="opacity:1;fill:#ffffff;fill-opacity:1;fill-rule:nonzero;stroke:none;stroke-width:1;stroke-linecap:round;stroke-linejoin:round;stroke-dasharray:none;stroke-opacity:1;paint-order:markers stroke fill"
         id="path33"
         cx="334.25909"
         cy="422.78137"
         rx="27.922682"
         ry="27.75528" />
      <ellipse
         style="opacity:1;fill:#ffffff;fill-opacity:1;fill-rule:nonzero;stroke:none;stroke-width:1;stroke-linecap:round;stroke-linejoin:round;stroke-dasharray:none;stroke-opacity:1;paint-order:markers stroke fill"
         id="path34"
         cx="406.90686"
         cy="510.97839"
         rx="20.772219"
         ry="22.785828" />
    </g>
    <g
       id="layer4">
      <text
         xml:space="preserve"
         style="font-style:normal;font-variant:normal;font-weight:bold;font-stretch:normal;font-size:113.105px;font-family:'Noto Sans CJK HK';-inkscape-font-specification:'Noto Sans CJK HK Bold';opacity:1;fill:#ffffff;fill-opacity:1;fill-rule:nonzero;stroke:none;stroke-width:8.47913;stroke-linecap:round;stroke-linejoin:round;stroke-dasharray:none;stroke-opacity:1;paint-order:markers stroke fill"
         x="33.414185"
         y="756.62"
         id="text37"
         transform="scale(0.9986967,1.001305)"><tspan
           id="tspan37"
           x="33.414185"
           y="756.62"
           style="font-style:normal;font-variant:normal;font-weight:bold;font-stretch:normal;font-size:113.105px;font-family:'Noto Sans CJK HK';-inkscape-font-specification:'Noto Sans CJK HK Bold';fill:#ffffff;stroke-width:8.47913">CODE</tspan></text>
      <text
         xml:space="preserve"
         style="font-style:normal;font-variant:normal;font-weight:bold;font-stretch:normal;font-size:113.105px;font-family:'Noto Sans CJK HK';-inkscape-font-specification:'Noto Sans CJK HK Bold';opacity:1;fill:#ff2a2a;fill-opacity:1;fill-rule:nonzero;stroke:none;stroke-width:8.47913;stroke-linecap:round;stroke-linejoin:round;stroke-dasharray:none;stroke-opacity:1;paint-order:markers stroke fill"
         x="349.06778"
         y="756.41937"
         id="text38"
         transform="scale(0.9986967,1.001305)"><tspan
           id="tspan38"
           x="349.06778"
           y="756.41937"
           style="font-style:normal;font-variant:normal;font-weight:bold;font-stretch:normal;font-size:113.105px;font-family:'Noto Sans CJK HK';-inkscape-font-specification:'Noto Sans CJK HK Bold';fill:#ff2a2a;stroke-width:8.47913">COFFEE</tspan></text>
    </g>
  </g>
</svg>
